<svg width="20" height="21" viewBox="0 0 20 21" fill="none" xmlns="http://www.w3.org/2000/svg">
<path d="M1 18.9V2.1C1 1.94087 1.06321 1.78826 1.17574 1.67574C1.28826 1.56321 1.44087 1.5 1.6 1.5H18.4C18.5591 1.5 18.7117 1.56321 18.8243 1.67574C18.9368 1.78826 19 1.94087 19 2.1V18.9C19 19.0591 18.9368 19.2117 18.8243 19.3243C18.7117 19.4368 18.5591 19.5 18.4 19.5H1.6C1.44087 19.5 1.28826 19.4368 1.17574 19.3243C1.06321 19.2117 1 19.0591 1 18.9Z" stroke="#3B4504" stroke-width="1.5"/>
<path d="M13 7C12.315 6.315 11.109 5.839 10 5.809M10 5.809C8.68 5.773 7.5 6.37 7.5 8C7.5 11 13 9.5 13 12.5C13 14.211 11.536 14.946 10 14.891M10 5.809V4M7 13.5C7.644 14.36 8.843 14.85 10 14.891M10 14.891V17" stroke="#3B4504" stroke-width="1.5" stroke-linecap="round" stroke-linejoin="round"/>
</svg>
