<svg width="312" height="77" viewBox="0 0 312 77" fill="none" xmlns="http://www.w3.org/2000/svg">
<path d="M46.0741 65.4458C42.3923 71.7771 34.8337 76.6862 25.2335 76.6862C11.2404 76.6862 0 67.4989 0 50.948C0 36.1406 10.9307 24.3955 26.4493 24.3955C39.2152 24.3955 47.1866 31.8509 47.8978 47.2777L47.2899 47.8856H15.4383C15.748 62.1884 21.6664 67.086 30.2458 67.086C34.7419 67.086 40.2589 65.4573 44.0325 61.9819H44.3421L46.0741 65.4573V65.4458ZM15.6333 43.9859H34.3864C34.0767 35.5097 31.5419 27.8594 25.027 27.8594C18.5122 27.8594 16.138 35.2 15.6333 43.9859Z" fill="white"/>
<path d="M178.573 75.4589H154.979L153.855 71.7771C153.855 71.7771 156.769 69.8387 158.604 68.5083V34.6036L155.301 33.3534C153.236 32.5735 151.86 30.5892 151.86 28.3755C158.707 27.6644 165.245 26.0242 171.576 24.3955L173.618 25.1066V67.9004C176.176 69.6323 179.8 71.7771 179.8 71.7771L178.573 75.4589Z" fill="white"/>
<path d="M285.564 69.1275C284.497 76.1011 274.025 78.7048 268.52 75.4932C267.442 74.8624 266.536 73.9792 265.859 72.9469C265.561 72.4996 264.001 69.8271 264.414 69.3454C260.629 73.7383 254.504 76.6975 248.78 76.6975C239.283 76.6975 233.457 71.8 233.457 63.622C233.457 54.2283 240.098 49.021 252.049 49.021C255.525 49.021 259.608 49.6289 262.67 50.6497V44.5248C262.67 34.4085 259.918 31.1396 249.285 30.6349L243.367 41.4853H239.49C238.676 37.1956 237.345 32.493 235.613 28.6163L235.716 27.6987C242.713 25.0606 250.26 23.5122 258.117 23.5122C271.192 23.5122 277.696 31.3575 277.696 42.2882V62.0048C277.696 67.9346 278.51 69.873 281.882 69.873C283.006 69.873 284.13 69.7698 285.564 69.1619V69.1275ZM254.206 68.3131C257.062 68.3131 259.929 67.0859 262.682 65.1475V54.6297C260.227 53.5057 257.474 53.2992 255.02 53.2992C250.627 53.2992 247.152 56.1552 247.152 60.7546C247.152 65.3539 249.606 68.3131 254.194 68.3131H254.206Z" fill="white"/>
<path d="M292.295 66.9835V65.9627L301.586 57.3833H302.4L312 66.9835V67.7979L302.71 76.6869H301.895L292.295 66.9835Z" fill="#9C9C78"/>
<path d="M141.135 67.9004V42.3686C141.135 31.7476 137.361 24.3955 124.286 24.3955C117.954 24.3955 111.52 28.3755 106.508 34.3054C104.466 28.1805 99.8667 24.3955 90.6794 24.3955C84.7495 24.3955 78.8196 27.802 73.9335 33.0667V25.4622L71.479 24.3955C65.5606 26.0242 52.5883 28.1691 52.5883 28.1691C52.5883 30.4515 53.9876 32.4932 56.1095 33.3075L58.9196 34.3971V68.5083C57.1876 69.8387 54.4808 71.7771 54.4808 71.7771L55.6048 75.4589C59.8945 75.2525 74.702 75.2525 78.8884 75.4589L80.1157 71.7771C80.1157 71.7771 76.1816 69.4258 73.9335 67.9004V37.3219C77.0992 34.0531 80.5745 32.2179 84.3481 32.2179C89.7618 32.2179 92.5145 37.666 92.5145 45.2246V68.5083C90.7826 69.8387 88.0757 71.7771 88.0757 71.7771L89.1998 75.4589C93.5927 75.2525 108.4 75.2525 112.483 75.4589L113.711 71.7771C113.711 71.7771 109.777 69.4258 107.528 67.9004V37.4252C110.694 34.0531 114.169 32.2179 118.046 32.2179C123.46 32.2179 126.121 37.666 126.121 45.2246V68.5083C124.389 69.8387 121.682 71.7771 121.682 71.7771L122.806 75.4589C127.199 75.2525 142.007 75.2525 146.09 75.4589L147.317 71.7771C147.317 71.7771 143.486 69.5291 141.135 67.9004Z" fill="white"/>
<path d="M228.673 24.9009H223.465C216.893 24.9009 211.514 29.2709 207.224 35.7398V25.5088L204.058 24.3848C198.232 26.0135 192.417 27.344 185.879 28.1583V31.9319L192.21 34.3864V68.4975C190.478 69.7248 187.771 71.7664 187.771 71.7664L188.895 75.4482H212.179L213.406 71.7664C213.406 71.7664 209.472 69.4151 207.224 67.8896V44.9271C207.224 44.9271 207.27 44.8583 207.304 44.8239C210.459 40.4539 216.044 38.5729 221.229 40.041L226.218 41.4518L227.032 40.8439L229.177 25.6006L228.673 24.8894V24.9009Z" fill="white"/>
<path d="M155.737 9.03818V8.16648L164.89 0H165.761L175.453 9.15288V9.90989L166.197 18.1911H165.211L155.737 9.03818Z" fill="white"/>
</svg>
