<svg width="130" height="32" viewBox="0 0 130 32" fill="none" xmlns="http://www.w3.org/2000/svg">
<path d="M19.1837 27.2493C17.6507 29.8855 14.5036 31.9295 10.5064 31.9295C4.68011 31.9295 0 28.1042 0 21.213C0 15.0476 4.55116 10.1574 11.0126 10.1574C16.3278 10.1574 19.6469 13.2616 19.943 19.6848L19.6899 19.9379H6.42798C6.55692 25.8931 9.02114 27.9323 12.5933 27.9323C14.4653 27.9323 16.7624 27.2541 18.3336 25.8071H18.4625L19.1837 27.2541V27.2493ZM6.50917 18.3142H14.3173C14.1884 14.785 13.1329 11.5996 10.4204 11.5996C7.70785 11.5996 6.7193 14.656 6.50917 18.3142Z" fill="white"/>
<path d="M74.3512 31.4185H64.5277L64.0597 29.8855C64.0597 29.8855 65.2727 29.0784 66.0368 28.5244V14.4077L64.6614 13.8872C63.8018 13.5624 63.2288 12.7362 63.2288 11.8145C66.0798 11.5185 68.8019 10.8355 71.4381 10.1574L72.2881 10.4535V28.2713C73.3531 28.9924 74.8622 29.8855 74.8622 29.8855L74.3512 31.4185Z" fill="white"/>
<path d="M118.899 28.7822C118.455 31.6858 114.094 32.7699 111.802 31.4327C111.353 31.1701 110.976 30.8023 110.694 30.3725C110.57 30.1863 109.921 29.0736 110.093 28.873C108.517 30.702 105.966 31.9342 103.583 31.9342C99.6291 31.9342 97.2031 29.895 97.2031 26.4899C97.2031 22.5787 99.9682 20.4106 104.944 20.4106C106.391 20.4106 108.092 20.6637 109.367 21.0887V18.5385C109.367 14.3264 108.22 12.9654 103.793 12.7553L101.329 17.273H99.7151C99.376 15.4869 98.8221 13.5289 98.1009 11.9148L98.1439 11.5327C101.057 10.4343 104.199 9.78961 107.471 9.78961C112.915 9.78961 115.623 13.0561 115.623 17.6073V25.8166C115.623 28.2856 115.962 29.0927 117.366 29.0927C117.834 29.0927 118.302 29.0497 118.899 28.7966V28.7822ZM105.842 28.4432C107.031 28.4432 108.225 27.9322 109.371 27.1251V22.7459C108.349 22.2779 107.203 22.1919 106.181 22.1919C104.352 22.1919 102.905 23.381 102.905 25.296C102.905 27.2111 103.927 28.4432 105.837 28.4432H105.842Z" fill="white"/>
<path d="M121.702 27.8896V27.4645L125.57 23.8924H125.909L129.906 27.8896V28.2286L126.038 31.9297H125.699L121.702 27.8896Z" fill="#9C9C78"/>
<path d="M58.764 28.2713V17.6408C58.764 13.2186 57.1928 10.1574 51.7486 10.1574C49.1125 10.1574 46.4334 11.8145 44.3464 14.2835C43.4964 11.7334 41.5813 10.1574 37.7561 10.1574C35.2871 10.1574 32.8181 11.5758 30.7837 13.7678V10.6015L29.7617 10.1574C27.2975 10.8355 21.8962 11.7286 21.8962 11.7286C21.8962 12.6789 22.4789 13.529 23.3624 13.8681L24.5324 14.3217V28.5244C23.8113 29.0784 22.6842 29.8855 22.6842 29.8855L23.1522 31.4185C24.9383 31.3325 31.1036 31.3325 32.8467 31.4185L33.3577 29.8855C33.3577 29.8855 31.7197 28.9065 30.7837 28.2713V15.5395C32.1017 14.1785 33.5487 13.4144 35.1199 13.4144C37.374 13.4144 38.5202 15.6828 38.5202 18.8299V28.5244C37.7991 29.0784 36.672 29.8855 36.672 29.8855L37.14 31.4185C38.9691 31.3325 45.1344 31.3325 46.8345 31.4185L47.3455 29.8855C47.3455 29.8855 45.7075 28.9065 44.7715 28.2713V15.5825C46.0895 14.1785 47.5365 13.4144 49.1507 13.4144C51.4048 13.4144 52.5127 15.6828 52.5127 18.8299V28.5244C51.7916 29.0784 50.6646 29.8855 50.6646 29.8855L51.1326 31.4185C52.9616 31.3325 59.127 31.3325 60.8271 31.4185L61.3381 29.8855C61.3381 29.8855 59.743 28.9495 58.764 28.2713Z" fill="white"/>
<path d="M95.2111 10.3678H93.043C90.3066 10.3678 88.0668 12.1873 86.2807 14.8808V10.6209L84.9627 10.1529C82.5366 10.831 80.1154 11.385 77.3933 11.7241V13.2952L80.0295 14.3172V28.5199C79.3083 29.0309 78.1813 29.881 78.1813 29.881L78.6493 31.4139H88.3438L88.8548 29.881C88.8548 29.881 87.2168 28.902 86.2807 28.2668V18.706C86.2807 18.706 86.2998 18.6774 86.3142 18.663C87.6275 16.8435 89.9532 16.0603 92.1118 16.6716L94.1892 17.259L94.5282 17.0059L95.4213 10.6591L95.2111 10.363V10.3678Z" fill="white"/>
<path d="M64.8433 3.76316V3.40021L68.6542 -3.05176e-05H69.0171L73.0526 3.81091V4.1261L69.1986 7.5741H68.7879L64.8433 3.76316Z" fill="white"/>
</svg>
