<svg width="58" height="58" viewBox="0 0 58 58" fill="none" xmlns="http://www.w3.org/2000/svg">
<circle cx="29" cy="29" r="27.5" stroke="#D9D9D9" stroke-width="3"/>
<circle cx="29" cy="29" r="24" fill="#3B4504"/>
<path d="M28.9998 42.8751C33.5598 42.8751 37.6338 40.8021 40.3361 37.5486C39.3326 32.1966 34.6436 28.1436 28.9998 28.1436C23.3561 28.1436 18.6671 32.1966 17.6636 37.5486C20.3658 40.8021 24.4398 42.8751 28.9998 42.8751Z" stroke="#D9D9D9" stroke-width="3" stroke-linecap="round" stroke-linejoin="round"/>
<path d="M29.0001 25.928C31.9833 25.928 34.4016 23.5097 34.4016 20.5265C34.4016 17.5433 31.9833 15.125 29.0001 15.125C26.017 15.125 23.5986 17.5433 23.5986 20.5265C23.5986 23.5097 26.017 25.928 29.0001 25.928Z" stroke="#D9D9D9" stroke-width="3" stroke-linecap="round" stroke-linejoin="round"/>
</svg>
