<svg width="18" height="22" viewBox="0 0 18 22" fill="none" xmlns="http://www.w3.org/2000/svg">
<path d="M8.99997 0.928574C11.2164 0.928574 13.3421 1.80906 14.9094 3.37632C16.4766 4.94359 17.3571 7.06926 17.3571 9.28572C17.3571 12.8171 14.8757 16.6657 9.97711 20.8726C9.70473 21.1066 9.35745 21.2351 8.99836 21.2348C8.63928 21.2344 8.29222 21.1053 8.02025 20.8709L7.69625 20.5897C3.01454 16.4926 0.642822 12.7383 0.642822 9.28572C0.642822 7.06926 1.5233 4.94359 3.09057 3.37632C4.65784 1.80906 6.78351 0.928574 8.99997 0.928574ZM8.99997 2.21429C7.12451 2.21429 5.32586 2.95931 3.99971 4.28546C2.67356 5.61161 1.92854 7.41026 1.92854 9.28572C1.92854 12.2874 4.11254 15.746 8.54054 19.6203L8.86025 19.8971C8.89913 19.9306 8.9487 19.949 8.99997 19.949C9.05124 19.949 9.10081 19.9306 9.13968 19.8971C13.782 15.9097 16.0714 12.3586 16.0714 9.28572C16.0714 8.35708 15.8885 7.43754 15.5331 6.5796C15.1777 5.72165 14.6569 4.9421 14.0002 4.28546C13.3436 3.62882 12.564 3.10794 11.7061 2.75257C10.8481 2.3972 9.9286 2.21429 8.99997 2.21429ZM8.99997 6.07143C9.85245 6.07143 10.67 6.41008 11.2728 7.01287C11.8756 7.61567 12.2143 8.43323 12.2143 9.28572C12.2143 10.1382 11.8756 10.9558 11.2728 11.5586C10.67 12.1614 9.85245 12.5 8.99997 12.5C8.14748 12.5 7.32992 12.1614 6.72712 11.5586C6.12433 10.9558 5.78568 10.1382 5.78568 9.28572C5.78568 8.43323 6.12433 7.61567 6.72712 7.01287C7.32992 6.41008 8.14748 6.07143 8.99997 6.07143ZM8.99997 7.35714C8.48848 7.35714 7.99794 7.56033 7.63626 7.92201C7.27458 8.28369 7.07139 8.77423 7.07139 9.28572C7.07139 9.7972 7.27458 10.2877 7.63626 10.6494C7.99794 11.0111 8.48848 11.2143 8.99997 11.2143C9.51145 11.2143 10.002 11.0111 10.3637 10.6494C10.7253 10.2877 10.9285 9.7972 10.9285 9.28572C10.9285 8.77423 10.7253 8.28369 10.3637 7.92201C10.002 7.56033 9.51145 7.35714 8.99997 7.35714Z" fill="#3B4504"/>
</svg>
