<svg width="48" height="48" viewBox="0 0 48 48" fill="none" xmlns="http://www.w3.org/2000/svg">
<rect x="48" width="48" height="48" rx="24" transform="rotate(90 48 0)" fill="black" fill-opacity="0.6"/>
<path d="M7.67995 23.9999C7.67995 14.9759 14.9759 7.67993 23.9999 7.67993C33.0239 7.67993 40.3199 14.9759 40.3199 23.9999C40.3199 33.0239 33.0239 40.3199 23.9999 40.3199C14.9759 40.3199 7.67995 33.0239 7.67995 23.9999ZM38.3999 23.9999C38.3999 16.0319 31.9679 9.59993 23.9999 9.59993C16.0319 9.59993 9.59995 16.0319 9.59995 23.9999C9.59995 31.9679 16.0319 38.3999 23.9999 38.3999C31.9679 38.3999 38.3999 31.9679 38.3999 23.9999Z" fill="white"/>
<path d="M22.368 31.968L30.336 24L22.368 16.032L23.712 14.688L33.024 24L23.712 33.312L22.368 31.968Z" fill="white"/>
<path d="M31.6801 23.04L31.6801 24.96L15.3601 24.96L15.3601 23.04L31.6801 23.04Z" fill="white"/>
</svg>
