<svg width="48" height="48" viewBox="0 0 48 48" fill="none" xmlns="http://www.w3.org/2000/svg">
<rect y="48" width="48" height="48" rx="24" transform="rotate(-90 0 48)" fill="black" fill-opacity="0.6"/>
<path d="M40.3199 24.0001C40.3199 33.0241 33.0239 40.3201 23.9999 40.3201C14.9759 40.3201 7.67993 33.0241 7.67993 24.0001C7.67993 14.9761 14.9759 7.68007 23.9999 7.68007C33.0239 7.68007 40.3199 14.9761 40.3199 24.0001ZM9.59993 24.0001C9.59993 31.9681 16.0319 38.4001 23.9999 38.4001C31.9679 38.4001 38.3999 31.9681 38.3999 24.0001C38.3999 16.0321 31.9679 9.60007 23.9999 9.60007C16.0319 9.60007 9.59993 16.0321 9.59993 24.0001Z" fill="white"/>
<path d="M25.6321 16.032L17.6641 24L25.6321 31.968L24.2881 33.312L14.9761 24L24.2881 14.688L25.6321 16.032Z" fill="white"/>
<path d="M16.3201 24.96L16.3201 23.04L32.6401 23.04L32.6401 24.96L16.3201 24.96Z" fill="white"/>
</svg>
